<svg width="126" height="45" viewBox="0 0 126 45" fill="none" xmlns="http://www.w3.org/2000/svg">
<rect x="0.5" y="0.5" width="125" height="44" rx="9.5" fill="white" stroke="#0278ED"/>
<path d="M24.3345 28V17.29H32.3745V28H31.0395V18.475H25.6845V28H24.3345ZM38.2412 17.29C39.6412 17.29 40.6612 17.565 41.3012 18.115C41.9412 18.665 42.2612 19.44 42.2612 20.44C42.2612 20.88 42.1862 21.305 42.0362 21.715C41.8962 22.115 41.6612 22.475 41.3312 22.795C41.0012 23.115 40.5612 23.37 40.0112 23.56C39.4612 23.74 38.7862 23.83 37.9862 23.83H36.7562V28H35.4062V17.29H38.2412ZM38.1212 18.445H36.7562V22.675H37.8362C38.5162 22.675 39.0812 22.605 39.5312 22.465C39.9812 22.315 40.3162 22.08 40.5362 21.76C40.7562 21.44 40.8662 21.02 40.8662 20.5C40.8662 19.81 40.6462 19.295 40.2062 18.955C39.7662 18.615 39.0712 18.445 38.1212 18.445ZM44.6032 17.29H45.8632V23.17C45.8632 23.42 45.8582 23.695 45.8482 23.995C45.8482 24.285 45.8432 24.575 45.8332 24.865C45.8232 25.155 45.8082 25.415 45.7882 25.645C45.7782 25.865 45.7682 26.035 45.7582 26.155H45.8182L51.7132 17.29H53.2132V28H51.9532V22.18C51.9532 21.91 51.9582 21.62 51.9682 21.31C51.9782 20.99 51.9882 20.685 51.9982 20.395C52.0182 20.095 52.0332 19.83 52.0432 19.6C52.0532 19.37 52.0632 19.2 52.0732 19.09H52.0132L46.1032 28H44.6032V17.29ZM63.4169 17.29V26.8H64.7819V30.82H63.4919V28H56.1269V30.82H54.8369V26.8H55.6619C56.0219 26.18 56.3619 25.485 56.6819 24.715C57.0119 23.945 57.3019 23.14 57.5519 22.3C57.8019 21.45 58.0069 20.6 58.1669 19.75C58.3269 18.9 58.4269 18.08 58.4669 17.29H63.4169ZM59.6519 18.505C59.6119 19.085 59.5119 19.74 59.3519 20.47C59.2019 21.2 59.0069 21.95 58.7669 22.72C58.5369 23.48 58.2769 24.215 57.9869 24.925C57.7069 25.635 57.4069 26.26 57.0869 26.8H62.0819V18.505H59.6519ZM66.673 28V17.29H73.033V18.475H68.023V21.82H69.613C70.683 21.82 71.513 21.955 72.103 22.225C72.693 22.485 73.103 22.845 73.333 23.305C73.563 23.755 73.678 24.275 73.678 24.865C73.678 25.515 73.548 26.075 73.288 26.545C73.038 27.015 72.628 27.375 72.058 27.625C71.488 27.875 70.738 28 69.808 28H66.673ZM69.673 26.845C70.633 26.845 71.308 26.685 71.698 26.365C72.088 26.035 72.283 25.535 72.283 24.865C72.283 24.405 72.188 24.04 71.998 23.77C71.818 23.49 71.518 23.29 71.098 23.17C70.688 23.05 70.138 22.99 69.448 22.99H68.023V26.845H69.673ZM82.7215 28L81.4315 24.685H77.1865L75.9115 28H74.5465L78.7315 17.245H79.9465L84.1165 28H82.7215ZM79.8265 20.245C79.7965 20.165 79.7465 20.02 79.6765 19.81C79.6065 19.6 79.5365 19.385 79.4665 19.165C79.4065 18.935 79.3565 18.76 79.3165 18.64C79.2665 18.84 79.2115 19.045 79.1515 19.255C79.1015 19.455 79.0465 19.64 78.9865 19.81C78.9365 19.98 78.8915 20.125 78.8515 20.245L77.6365 23.485H81.0265L79.8265 20.245ZM88.0169 28H86.6669V18.475H83.3219V17.29H91.3469V18.475H88.0169V28ZM93.0768 17.29H94.3368V23.17C94.3368 23.42 94.3318 23.695 94.3218 23.995C94.3218 24.285 94.3168 24.575 94.3068 24.865C94.2968 25.155 94.2818 25.415 94.2618 25.645C94.2518 25.865 94.2418 26.035 94.2318 26.155H94.2918L100.187 17.29H101.687V28H100.427V22.18C100.427 21.91 100.432 21.62 100.442 21.31C100.452 20.99 100.462 20.685 100.472 20.395C100.492 20.095 100.507 19.83 100.517 19.6C100.527 19.37 100.537 19.2 100.547 19.09H100.487L94.5768 28H93.0768V17.29Z" fill="#0278ED"/>
</svg>
