<svg width="23" height="23" viewBox="0 0 23 23" fill="none" xmlns="http://www.w3.org/2000/svg">
<path d="M14.3488 11.6938L22.4434 3.61685C22.7979 3.26232 22.997 2.78148 22.997 2.2801C22.997 1.77872 22.7979 1.29788 22.4434 0.943349C22.0889 0.58882 21.6082 0.389648 21.1069 0.389648C20.6055 0.389648 20.1248 0.58882 19.7703 0.943349L11.6945 9.03916L3.61863 0.943349C3.26415 0.58882 2.78337 0.389648 2.28207 0.389648C1.78076 0.389648 1.29998 0.58882 0.945506 0.943349C0.591028 1.29788 0.391885 1.77872 0.391885 2.2801C0.391885 2.78148 0.591028 3.26232 0.945506 3.61685L9.04017 11.6938L0.945506 19.7708C0.769064 19.9458 0.629019 20.1541 0.533448 20.3835C0.437877 20.6129 0.388672 20.859 0.388672 21.1076C0.388672 21.3561 0.437877 21.6022 0.533448 21.8316C0.629019 22.0611 0.769064 22.2693 0.945506 22.4443C1.12051 22.6208 1.32871 22.7608 1.55811 22.8564C1.78751 22.952 2.03356 23.0012 2.28207 23.0012C2.53058 23.0012 2.77663 22.952 3.00602 22.8564C3.23542 22.7608 3.44363 22.6208 3.61863 22.4443L11.6945 14.3485L19.7703 22.4443C19.9453 22.6208 20.1535 22.7608 20.3829 22.8564C20.6123 22.952 20.8583 23.0012 21.1069 23.0012C21.3554 23.0012 21.6014 22.952 21.8308 22.8564C22.0602 22.7608 22.2684 22.6208 22.4434 22.4443C22.6199 22.2693 22.7599 22.0611 22.8555 21.8316C22.951 21.6022 23.0002 21.3561 23.0002 21.1076C23.0002 20.859 22.951 20.6129 22.8555 20.3835C22.7599 20.1541 22.6199 19.9458 22.4434 19.7708L14.3488 11.6938Z" fill="white"/>
</svg>
