<svg width="80" height="80" viewBox="0 0 80 80" fill="none" xmlns="http://www.w3.org/2000/svg">
<path fill-rule="evenodd" clip-rule="evenodd" d="M31.4391 21.6675H48.5606C54.7958 21.6675 58.3158 25.204 58.3341 31.4392V48.5625C58.3341 54.7959 54.7958 58.3342 48.5606 58.3342H31.4391C25.204 58.3342 21.6675 54.7959 21.6675 48.5625V31.4392C21.6675 25.204 25.204 21.6675 31.4391 21.6675ZM40.0906 50.7442C40.8808 50.7442 41.539 50.1575 41.6123 49.3692V30.6875C41.6856 30.1192 41.4125 29.549 40.9175 29.2392C40.4023 28.9275 39.779 28.9275 39.2858 29.2392C38.789 29.549 38.5158 30.1192 38.569 30.6875V49.3692C38.6625 50.1575 39.3206 50.7442 40.0906 50.7442ZM48.5258 50.7442C49.2958 50.7442 49.954 50.1575 50.0475 49.3692V43.3559C50.1006 42.7674 49.8275 42.2192 49.3306 41.9075C48.8375 41.5959 48.2141 41.5959 47.7008 41.9075C47.204 42.2192 46.9308 42.7674 47.0041 43.3559V49.3692C47.0775 50.1575 47.7356 50.7442 48.5258 50.7442ZM33.069 49.3692C32.9956 50.1575 32.3375 50.7442 31.5473 50.7442C30.759 50.7442 30.099 50.1575 30.0275 49.3692V36.7009C29.9725 36.1307 30.2456 35.5642 30.7425 35.2525C31.2356 34.9409 31.8608 34.9409 32.3558 35.2525C32.849 35.5642 33.1258 36.1307 33.069 36.7009V49.3692Z" fill="#080829"/>
<path d="M0 20C0 8.95431 8.95431 0 20 0H60C71.0457 0 80 8.95431 80 20V60C80 71.0457 71.0457 80 60 80H20C8.95431 80 0 71.0457 0 60V20Z" fill="#3F53D8" fill-opacity="0.3"/>
</svg>
