<svg width="80" height="80" viewBox="0 0 80 80" fill="none" xmlns="http://www.w3.org/2000/svg">
<path d="M0 20C0 8.95431 8.95431 0 20 0H60C71.0457 0 80 8.95431 80 20V60C80 71.0457 71.0457 80 60 80H20C8.95431 80 0 71.0457 0 60V20Z" fill="#FE7F51" fill-opacity="0.3"/>
<path fill-rule="evenodd" clip-rule="evenodd" d="M49.4962 26.0851C49.4962 23.6467 51.4762 21.6667 53.9146 21.6667C56.3529 21.6667 58.3329 23.6467 58.3329 26.0851C58.3329 28.5235 56.3529 30.5035 53.9146 30.5035C51.4762 30.5035 49.4962 28.5235 49.4962 26.0851ZM42.4377 45.0588L47.736 38.2223L47.6627 38.259C47.956 37.8557 48.011 37.3423 47.8094 36.884C47.6095 36.4257 47.1677 36.114 46.6929 36.0773C46.196 36.0223 45.7029 36.2423 45.4077 36.6457L40.9729 42.384L35.8927 38.3873C35.581 38.149 35.2144 38.0555 34.8477 38.094C34.4829 38.149 34.1529 38.3488 33.931 38.6422L28.5062 45.7023L28.3944 45.8673C28.0827 46.4522 28.2294 47.2038 28.7794 47.609C29.036 47.774 29.311 47.884 29.6227 47.884C30.0462 47.9023 30.4477 47.6805 30.7044 47.334L35.306 41.4105L40.531 45.3357L40.696 45.4438C41.2827 45.7555 42.016 45.6107 42.4377 45.0588ZM46.3244 24.9306C46.251 25.389 46.2144 25.8473 46.2144 26.3056C46.2144 30.4307 49.551 33.7655 53.6577 33.7655C54.116 33.7655 54.556 33.7123 55.0144 33.639V48.4322C55.0144 54.649 51.3477 58.334 45.1144 58.334H31.5679C25.3327 58.334 21.666 54.649 21.666 48.4322V34.8673C21.666 28.634 25.3327 24.9306 31.5679 24.9306H46.3244Z" fill="#080829"/>
</svg>
