<svg width="20" height="20" viewBox="0 0 20 20" fill="none" xmlns="http://www.w3.org/2000/svg">
<path d="M18.9955 5.88005C18.9508 4.81738 18.7872 4.0868 18.5527 3.45374C18.3109 2.78176 17.9388 2.18014 17.4513 1.68002C16.9749 1.1721 16.3983 0.777435 15.7657 0.527447C15.1593 0.281274 14.4671 0.109427 13.455 0.0625732C12.4354 0.0117516 12.1117 0 9.5257 0C6.93959 0 6.61589 0.0117516 5.60005 0.0586052C4.58797 0.105459 3.89218 0.277459 3.28942 0.523479C2.64929 0.777435 2.07632 1.16814 1.60002 1.68002C1.11628 2.18014 0.74056 2.78573 0.50233 3.44992C0.26788 4.0868 0.104216 4.81341 0.0595943 5.87609C0.0111924 6.9467 0 7.28658 0 10.002C0 12.7173 0.0111924 13.0572 0.0558152 14.1239C0.100437 15.1865 0.264247 15.9171 0.498696 16.5502C0.74056 17.2221 1.11628 17.8238 1.60002 18.3239C2.07632 18.8318 2.65307 19.2265 3.28564 19.4765C3.89218 19.7226 4.58419 19.8945 5.59641 19.9413C6.61211 19.9883 6.93596 19.9999 9.52199 19.9999C12.1081 19.9999 12.4318 19.9883 13.4476 19.9413C14.4597 19.8945 15.1555 19.7226 15.7583 19.4765C17.0384 18.9568 18.0505 17.8941 18.5453 16.5502C18.7796 15.9133 18.9434 15.1865 18.9881 14.1239C19.0327 13.0572 19.0439 12.7173 19.0439 10.002C19.0439 7.28658 19.0401 6.9467 18.9955 5.88005ZM17.2802 14.0457C17.2392 15.0225 17.0829 15.5499 16.9528 15.9015C16.6327 16.7728 15.9741 17.4643 15.1443 17.8004C14.8094 17.9372 14.3034 18.1012 13.3768 18.1441C12.3722 18.1911 12.0708 18.2027 9.52942 18.2027C6.98799 18.2027 6.6829 18.1911 5.68187 18.1441C4.75164 18.1012 4.2493 17.9372 3.91442 17.8004C3.50148 17.6402 3.12561 17.3862 2.82051 17.0541C2.50424 16.7298 2.26237 16.3391 2.10975 15.9055C1.97952 15.5539 1.82327 15.0225 1.78243 14.0497C1.73766 12.9948 1.72662 12.6783 1.72662 10.0097C1.72662 7.34122 1.73766 7.02087 1.78243 5.96995C1.82327 4.99319 1.97952 4.46575 2.10975 4.11412C2.26237 3.68038 2.50424 3.28586 2.82429 2.96536C3.13302 2.63327 3.50511 2.37931 3.9182 2.21921C4.25308 2.08247 4.7592 1.9184 5.68566 1.87537C6.69031 1.82851 6.99177 1.81676 9.53304 1.81676C12.0783 1.81676 12.3796 1.82851 13.3807 1.87537C14.3108 1.9184 14.8132 2.08247 15.1481 2.21921C15.561 2.37931 15.9369 2.63327 16.242 2.96536C16.5583 3.28967 16.8001 3.68038 16.9528 4.11412C17.0829 4.46575 17.2392 4.99701 17.2802 5.96995C17.3248 7.02484 17.336 7.34122 17.336 10.0097C17.336 12.6783 17.3248 12.9908 17.2802 14.0457Z" fill="#080829"/>
<path d="M9.52465 4.86377C6.82333 4.86377 4.63159 7.16494 4.63159 10.0015C4.63159 12.8381 6.82333 15.1393 9.52465 15.1393C12.2262 15.1393 14.4177 12.8381 14.4177 10.0015C14.4177 7.16494 12.2262 4.86377 9.52465 4.86377ZM9.52465 13.3342C7.77217 13.3342 6.35065 11.8418 6.35065 10.0015C6.35065 8.16123 7.77217 6.66878 9.52465 6.66878C11.2773 6.66878 12.6986 8.16123 12.6986 10.0015C12.6986 11.8418 11.2773 13.3342 9.52465 13.3342Z" fill="#080829"/>
<path d="M15.7558 4.66182C15.7558 5.32419 15.2443 5.86125 14.6133 5.86125C13.9825 5.86125 13.4709 5.32419 13.4709 4.66182C13.4709 3.99931 13.9825 3.4624 14.6133 3.4624C15.2443 3.4624 15.7558 3.99931 15.7558 4.66182Z" fill="#080829"/>
</svg>
