<svg width="20" height="16" viewBox="0 0 20 16" fill="none" xmlns="http://www.w3.org/2000/svg">
<path opacity="0.1" d="M16.6793 1.33643C17.5899 1.33643 18.0252 2.45731 17.354 3.07358L11.7245 8.2418C10.961 8.9427 9.78913 8.9427 9.02564 8.2418L3.39611 3.07358C2.72483 2.45731 3.16018 1.33643 4.07081 1.33643H16.6793Z" fill="#080829"/>
<path d="M17.2492 1.33643H3.50087C2.39798 1.33643 1.50391 2.23185 1.50391 3.33642V12.6633C1.50391 13.7679 2.39798 14.6633 3.50087 14.6633H17.2492C18.3521 14.6633 19.2462 13.7679 19.2462 12.6633V3.33643C19.2462 2.23186 18.3521 1.33643 17.2492 1.33643Z" stroke="#080829" stroke-width="1.2" stroke-linecap="round" stroke-linejoin="round"/>
<path d="M18.6523 2.07666L11.7313 8.51296C10.9652 9.22556 9.77987 9.22556 9.01368 8.51296L2.09277 2.07666" stroke="#080829" stroke-width="1.2" stroke-linecap="round" stroke-linejoin="round"/>
</svg>
