<svg width="170" height="50" viewBox="0 0 170 50" fill="none" xmlns="http://www.w3.org/2000/svg">
<g clip-path="url(#clip0_553_235)">
<path d="M163.053 50H6.273C2.817 50 0 47.182 0 43.75V6.25C0 2.805 2.816 0 6.274 0H163.054C166.508 0 169.327 2.805 169.327 6.25V43.75C169.327 47.182 166.508 50 163.053 50Z" fill="black"/>
<path fill-rule="evenodd" clip-rule="evenodd" d="M163.053 1C165.953 1 168.327 3.36 168.327 6.25V43.75C168.327 46.64 165.969 49 163.053 49H6.273C3.374 49 1 46.64 1 43.75V6.25C1 3.36 3.358 1 6.274 1H163.054H163.053ZM163.053 0H6.273C2.817 0 0 2.818 0 6.25V43.75C0 47.195 2.816 50 6.274 50H163.054C166.508 50 169.327 47.195 169.327 43.75V6.25C169.327 2.818 166.508 0 163.053 0Z" fill="#A6A6A6"/>
<path fill-rule="evenodd" clip-rule="evenodd" d="M85.1059 27.195C82.1619 27.195 79.7759 29.43 79.7759 32.512C79.7759 35.567 82.1779 37.83 85.1059 37.83C88.0499 37.83 90.4359 35.58 90.4359 32.512C90.4359 29.43 88.0499 27.195 85.1059 27.195ZM85.1059 35.723C83.4959 35.723 82.1089 34.389 82.1089 32.5C82.1089 30.583 83.4989 29.277 85.1059 29.277C86.7159 29.277 88.1029 30.583 88.1029 32.5C88.1059 34.401 86.7159 35.723 85.1059 35.723ZM73.4769 27.195C70.5339 27.195 68.1469 29.43 68.1469 32.512C68.1469 35.567 70.5489 37.83 73.4769 37.83C76.4209 37.83 78.8069 35.58 78.8069 32.512C78.8069 29.43 76.4179 27.195 73.4769 27.195ZM73.4769 35.723C71.8669 35.723 70.4809 34.389 70.4809 32.5C70.4809 30.583 71.8709 29.277 73.4769 29.277C75.0869 29.277 76.4739 30.583 76.4739 32.5C76.4739 34.401 75.0879 35.723 73.4769 35.723ZM59.6399 28.82V31.07H65.0389C64.8739 32.333 64.4559 33.265 63.8179 33.904C63.0269 34.696 61.8049 35.556 59.6529 35.556C56.3349 35.556 53.7409 32.876 53.7409 29.556C53.7409 26.236 56.3349 23.555 59.6529 23.555C61.4439 23.555 62.7489 24.262 63.7179 25.166L65.3129 23.57C63.9669 22.28 62.1759 21.292 59.6649 21.292C55.1149 21.292 51.2949 25.001 51.2949 29.542C51.2949 34.097 55.1109 37.794 59.6649 37.794C62.1229 37.794 63.9669 36.99 65.4249 35.474C66.9109 33.988 67.3809 31.89 67.3809 30.197C67.3809 29.671 67.3409 29.197 67.2569 28.795H59.6369C59.6399 28.792 59.6399 28.82 59.6399 28.82ZM116.238 30.571C115.792 29.378 114.446 27.183 111.686 27.183C108.951 27.183 106.678 29.337 106.678 32.501C106.678 35.487 108.927 37.819 111.951 37.819C114.381 37.819 115.795 36.332 116.378 35.459L114.574 34.249C113.976 35.139 113.144 35.721 111.964 35.721C110.771 35.721 109.936 35.179 109.381 34.109L116.487 31.164C116.487 31.167 116.237 30.571 116.237 30.571H116.238ZM108.992 32.348C108.936 30.294 110.587 29.25 111.767 29.25C112.699 29.25 113.475 29.708 113.739 30.375L108.992 32.348ZM103.22 37.5H105.553V21.877H103.22V37.5ZM99.3879 28.376H99.3039C98.7779 27.749 97.7779 27.182 96.5009 27.182C93.8499 27.182 91.4079 29.517 91.4079 32.516C91.4079 35.502 93.8379 37.809 96.5009 37.809C97.7619 37.809 98.7779 37.239 99.3039 36.599H99.3879V37.363C99.3879 39.393 98.3039 40.486 96.5569 40.486C95.1269 40.486 94.2389 39.458 93.8769 38.597L91.8499 39.445C92.4319 40.848 93.9869 42.585 96.5539 42.585C99.2889 42.585 101.606 40.973 101.606 37.042V27.5H99.4009V28.376H99.3879ZM96.7089 35.723C95.0989 35.723 93.7529 34.377 93.7529 32.516C93.7529 30.639 95.0989 29.28 96.7089 29.28C98.3039 29.28 99.5409 30.655 99.5409 32.516C99.5569 34.376 98.3069 35.723 96.7089 35.723ZM127.162 21.877H121.583V37.5H123.916V31.584H127.166C129.747 31.584 132.286 29.71 132.286 26.736C132.286 23.762 129.756 21.876 127.162 21.876V21.877ZM127.231 29.401H123.913V24.04H127.231C128.978 24.04 129.966 25.483 129.966 26.72C129.966 27.946 128.966 29.401 127.231 29.401ZM141.638 27.166C139.943 27.166 138.195 27.918 137.473 29.554L139.541 30.414C139.987 29.554 140.803 29.261 141.666 29.261C142.874 29.261 144.096 29.984 144.123 31.275V31.44C143.706 31.203 142.79 30.842 141.693 30.842C139.46 30.842 137.196 32.064 137.196 34.355C137.196 36.453 139.027 37.799 141.068 37.799C142.634 37.799 143.498 37.092 144.036 36.272H144.12V37.482H146.37V31.496C146.37 28.709 144.3 27.166 141.638 27.166ZM141.345 35.723C140.582 35.723 139.513 35.349 139.513 34.389C139.513 33.179 140.846 32.721 141.983 32.721C143.011 32.721 143.497 32.943 144.108 33.248C143.94 34.651 142.756 35.711 141.345 35.723ZM154.575 27.5L151.895 34.277H151.811L149.036 27.5H146.525L150.69 36.973L148.316 42.238H150.746L157.154 27.5H154.574H154.575ZM133.573 37.5H135.906V21.877H133.573V37.5Z" fill="white"/>
<path d="M57.708 12.317C57.708 13.788 57.268 14.896 56.388 15.64C55.572 16.326 54.414 16.67 52.913 16.67C52.169 16.67 51.533 16.637 51 16.572V8.533C51.695 8.421 52.444 8.363 53.253 8.363C54.683 8.363 55.76 8.675 56.486 9.297C57.3 10.001 57.708 11.007 57.708 12.317ZM56.328 12.354C56.328 11.4 56.077 10.668 55.572 10.158C55.068 9.65 54.332 9.395 53.362 9.395C52.95 9.395 52.599 9.422 52.308 9.48V15.591C52.469 15.616 52.764 15.627 53.192 15.627C54.193 15.627 54.966 15.349 55.51 14.791C56.054 14.233 56.329 13.421 56.329 12.353L56.328 12.354ZM65.022 13.602C65.022 14.508 64.763 15.251 64.247 15.833C63.705 16.433 62.987 16.731 62.091 16.731C61.227 16.731 60.539 16.445 60.026 15.87C59.514 15.296 59.258 14.572 59.258 13.7C59.258 12.787 59.522 12.038 60.051 11.457C60.581 10.876 61.292 10.585 62.188 10.585C63.052 10.585 63.746 10.871 64.272 11.445C64.771 12.002 65.022 12.722 65.022 13.602ZM63.665 13.645C63.665 13.101 63.548 12.635 63.315 12.246C63.04 11.776 62.649 11.541 62.141 11.541C61.615 11.541 61.216 11.776 60.941 12.246C60.707 12.635 60.591 13.108 60.591 13.668C60.591 14.212 60.708 14.678 60.941 15.068C61.225 15.538 61.619 15.772 62.128 15.772C62.628 15.772 63.02 15.533 63.302 15.055C63.544 14.659 63.665 14.189 63.665 13.645ZM74.828 10.705L72.988 16.597H71.788L71.026 14.038C70.833 13.4 70.676 12.765 70.553 12.135H70.529C70.416 12.782 70.259 13.416 70.056 14.039L69.246 16.597H68.034L66.303 10.706H67.647L68.312 13.507C68.473 14.169 68.606 14.801 68.712 15.398H68.735C68.833 14.906 68.994 14.278 69.221 13.52L70.056 10.706H71.122L71.922 13.458C72.116 14.13 72.273 14.776 72.394 15.398H72.43C72.519 14.792 72.653 14.146 72.83 13.458L73.544 10.706H74.828V10.705ZM81.61 16.597H80.302V13.222C80.302 12.182 79.908 11.662 79.116 11.662C78.728 11.662 78.415 11.805 78.171 12.091C77.931 12.377 77.808 12.715 77.808 13.101V16.596H76.5V12.389C76.5 11.871 76.484 11.309 76.452 10.702H77.602L77.663 11.623H77.699C77.852 11.337 78.079 11.101 78.377 10.913C78.732 10.693 79.129 10.581 79.563 10.581C80.113 10.581 80.569 10.759 80.933 11.115C81.384 11.551 81.61 12.202 81.61 13.067V16.597ZM85.218 16.597H83.911V8.001H85.218V16.597ZM92.92 13.602C92.92 14.508 92.661 15.251 92.145 15.833C91.603 16.433 90.884 16.731 89.989 16.731C89.124 16.731 88.436 16.445 87.924 15.87C87.412 15.296 87.156 14.572 87.156 13.7C87.156 12.787 87.42 12.038 87.949 11.457C88.479 10.876 89.189 10.585 90.085 10.585C90.95 10.585 91.643 10.871 92.17 11.445C92.669 12.002 92.92 12.722 92.92 13.602ZM91.562 13.645C91.562 13.101 91.444 12.635 91.211 12.246C90.937 11.776 90.546 11.541 90.039 11.541C89.512 11.541 89.112 11.776 88.839 12.246C88.604 12.635 88.489 13.108 88.489 13.668C88.489 14.212 88.606 14.678 88.839 15.068C89.122 15.538 89.517 15.772 90.026 15.772C90.526 15.772 90.916 15.533 91.198 15.055C91.442 14.659 91.562 14.189 91.562 13.645ZM99.251 16.597H98.076L97.979 15.919H97.943C97.541 16.459 96.968 16.731 96.224 16.731C95.668 16.731 95.219 16.552 94.881 16.197C94.574 15.875 94.421 15.474 94.421 14.997C94.421 14.277 94.72 13.729 95.323 13.349C95.924 12.969 96.771 12.782 97.86 12.791V12.681C97.86 11.905 97.454 11.517 96.638 11.517C96.058 11.517 95.546 11.663 95.104 11.953L94.838 11.093C95.385 10.755 96.06 10.585 96.857 10.585C98.395 10.585 99.167 11.397 99.167 13.022V15.192C99.167 15.781 99.195 16.25 99.251 16.597ZM97.893 14.572V13.663C96.45 13.638 95.728 14.035 95.728 14.851C95.728 15.159 95.811 15.388 95.979 15.542C96.148 15.696 96.363 15.772 96.619 15.772C96.906 15.772 97.174 15.681 97.419 15.5C97.664 15.317 97.816 15.086 97.872 14.802C97.885 14.738 97.892 14.661 97.892 14.572H97.893ZM106.685 16.597H105.524L105.463 15.651H105.426C105.056 16.371 104.424 16.731 103.536 16.731C102.827 16.731 102.237 16.452 101.769 15.895C101.301 15.337 101.067 14.613 101.067 13.725C101.067 12.771 101.321 11.999 101.83 11.409C102.323 10.859 102.927 10.584 103.646 10.584C104.436 10.584 104.989 10.85 105.304 11.384H105.329V8H106.639V15.009C106.639 15.583 106.653 16.111 106.685 16.596V16.597ZM105.329 14.112V13.13C105.329 12.96 105.316 12.822 105.293 12.717C105.219 12.402 105.061 12.137 104.82 11.924C104.576 11.71 104.283 11.602 103.945 11.602C103.457 11.602 103.075 11.796 102.794 12.185C102.515 12.574 102.374 13.07 102.374 13.676C102.374 14.258 102.508 14.731 102.776 15.095C103.06 15.482 103.442 15.676 103.92 15.676C104.35 15.676 104.692 15.515 104.953 15.191C105.205 14.892 105.329 14.532 105.329 14.112ZM117.873 13.602C117.873 14.508 117.615 15.251 117.098 15.833C116.556 16.433 115.84 16.731 114.942 16.731C114.079 16.731 113.392 16.445 112.877 15.87C112.366 15.296 112.11 14.572 112.11 13.7C112.11 12.787 112.373 12.038 112.902 11.457C113.432 10.876 114.143 10.585 115.041 10.585C115.903 10.585 116.598 10.871 117.123 11.445C117.623 12.002 117.873 12.722 117.873 13.602ZM116.517 13.645C116.517 13.101 116.4 12.635 116.167 12.246C115.891 11.776 115.501 11.541 114.992 11.541C114.468 11.541 114.068 11.776 113.792 12.246C113.558 12.635 113.442 13.108 113.442 13.668C113.442 14.212 113.559 14.678 113.792 15.068C114.076 15.538 114.47 15.772 114.979 15.772C115.479 15.772 115.872 15.533 116.154 15.055C116.395 14.659 116.517 14.189 116.517 13.645ZM124.907 16.597H123.6V13.222C123.6 12.182 123.206 11.662 122.413 11.662C122.025 11.662 121.711 11.805 121.469 12.091C121.227 12.377 121.106 12.715 121.106 13.101V16.596H119.796V12.389C119.796 11.871 119.782 11.309 119.75 10.702H120.899L120.96 11.623H120.996C121.15 11.337 121.376 11.101 121.674 10.913C122.03 10.693 122.425 10.581 122.861 10.581C123.409 10.581 123.866 10.759 124.229 11.115C124.682 11.551 124.907 12.202 124.907 13.067V16.597ZM133.711 11.686H132.271V14.548C132.271 15.276 132.527 15.64 133.033 15.64C133.268 15.64 133.463 15.62 133.616 15.579L133.65 16.572C133.392 16.67 133.052 16.718 132.634 16.718C132.117 16.718 131.715 16.561 131.424 16.246C131.132 15.931 130.987 15.401 130.987 14.657V11.686H130.127V10.705H130.987V9.625L132.269 9.237V10.703H133.71V11.686H133.711ZM140.636 16.597H139.327V13.247C139.327 12.191 138.933 11.662 138.143 11.662C137.536 11.662 137.122 11.968 136.894 12.581C136.856 12.71 136.834 12.867 136.834 13.052V16.596H135.526V8.001H136.833V11.552H136.858C137.27 10.906 137.861 10.583 138.626 10.583C139.167 10.583 139.616 10.761 139.971 11.117C140.415 11.561 140.637 12.221 140.637 13.093V16.597H140.636ZM147.781 13.372C147.781 13.607 147.763 13.805 147.732 13.966H143.809C143.826 14.548 144.013 14.992 144.377 15.3C144.709 15.575 145.137 15.712 145.661 15.712C146.241 15.712 146.771 15.62 147.248 15.433L147.452 16.343C146.894 16.586 146.238 16.707 145.478 16.707C144.566 16.707 143.848 16.439 143.329 15.901C142.807 15.363 142.549 14.642 142.549 13.737C142.549 12.849 142.79 12.109 143.276 11.519C143.782 10.889 144.468 10.573 145.333 10.573C146.179 10.573 146.822 10.889 147.256 11.519C147.607 12.019 147.781 12.637 147.781 13.372ZM146.532 13.034C146.542 12.644 146.456 12.31 146.279 12.027C146.052 11.663 145.706 11.481 145.238 11.481C144.811 11.481 144.463 11.659 144.197 12.015C143.98 12.299 143.851 12.637 143.809 13.034H146.532Z" fill="white"/>
<path fill-rule="evenodd" clip-rule="evenodd" d="M13.0329 9.41697C12.6719 9.80697 12.4629 10.402 12.4629 11.181V38.821C12.4629 39.601 12.6719 40.196 13.0459 40.571L13.1419 40.655L28.6179 25.168V24.822L13.1299 9.33197L13.0329 9.41697Z" fill="url(#paint0_linear_553_235)"/>
<path fill-rule="evenodd" clip-rule="evenodd" d="M33.767 30.346L28.605 25.181V24.819L33.767 19.654L33.879 19.723L39.985 23.195C41.732 24.18 41.732 25.807 39.985 26.805L33.879 30.277L33.767 30.346Z" fill="url(#paint1_linear_553_235)"/>
<path fill-rule="evenodd" clip-rule="evenodd" d="M33.88 30.277L28.604 25L13.033 40.583C13.603 41.193 14.56 41.263 15.628 40.667L33.879 30.277" fill="url(#paint2_linear_553_235)"/>
<path fill-rule="evenodd" clip-rule="evenodd" d="M33.88 19.723L15.627 9.34901C14.559 8.73801 13.599 8.82201 13.032 9.43301L28.605 25L33.879 19.723H33.88Z" fill="url(#paint3_linear_553_235)"/>
<path opacity="0.2" d="M33.7669 30.165L15.6409 40.471C14.6279 41.054 13.7249 41.013 13.1419 40.483L13.0459 40.58L13.1419 40.664C13.7249 41.191 14.6279 41.234 15.6409 40.651L33.8909 30.277L33.7669 30.165Z" fill="black"/>
<path opacity="0.12" d="M39.985 26.624L33.751 30.165L33.864 30.277L39.969 26.805C40.844 26.306 41.274 25.651 41.274 25C41.221 25.599 40.776 26.166 39.984 26.624H39.985Z" fill="black"/>
<path opacity="0.25" fill-rule="evenodd" clip-rule="evenodd" d="M15.6279 9.52999L39.9849 23.376C40.7749 23.822 41.2209 24.405 41.2899 25C41.2899 24.349 40.8599 23.694 39.9849 23.195L15.6279 9.34999C13.8809 8.34899 12.4629 9.18399 12.4629 11.182V11.363C12.4629 9.36199 13.8809 8.54299 15.6279 9.52999Z" fill="white"/>
</g>
<defs>
<linearGradient id="paint0_linear_553_235" x1="22.3199" y1="10.8825" x2="9.04394" y2="24.1673" gradientUnits="userSpaceOnUse">
<stop stop-color="#00A0FF"/>
<stop offset="0.00657" stop-color="#00A1FF"/>
<stop offset="0.2601" stop-color="#00BEFF"/>
<stop offset="0.5122" stop-color="#00D2FF"/>
<stop offset="0.7604" stop-color="#00DFFF"/>
<stop offset="1" stop-color="#00E3FF"/>
</linearGradient>
<linearGradient id="paint1_linear_553_235" x1="42.2635" y1="25" x2="12.0376" y2="25" gradientUnits="userSpaceOnUse">
<stop stop-color="#FFE000"/>
<stop offset="0.4087" stop-color="#FFBD00"/>
<stop offset="0.7754" stop-color="#FFA500"/>
<stop offset="1" stop-color="#FF9C00"/>
</linearGradient>
<linearGradient id="paint2_linear_553_235" x1="31.012" y1="29.9649" x2="8.34542" y2="52.6485" gradientUnits="userSpaceOnUse">
<stop stop-color="#FF3A44"/>
<stop offset="1" stop-color="#C31162"/>
</linearGradient>
<linearGradient id="paint3_linear_553_235" x1="9.11026" y1="7.01658" x2="19.2272" y2="17.142" gradientUnits="userSpaceOnUse">
<stop stop-color="#32A071"/>
<stop offset="0.0685" stop-color="#2DA771"/>
<stop offset="0.4762" stop-color="#15CF74"/>
<stop offset="0.8009" stop-color="#06E775"/>
<stop offset="1" stop-color="#00F076"/>
</linearGradient>
<clipPath id="clip0_553_235">
<rect width="170" height="50" fill="white"/>
</clipPath>
</defs>
</svg>
