<svg width="19" height="18" viewBox="0 0 19 18" fill="none" xmlns="http://www.w3.org/2000/svg">
<path opacity="0.1" d="M9.37324 17.25C13.9226 17.25 17.6107 13.5563 17.6107 9C17.6107 4.44365 13.9226 0.75 9.37324 0.75C4.82379 0.75 1.13574 4.44365 1.13574 9C1.13574 13.5563 4.82379 17.25 9.37324 17.25Z" fill="#080829"/>
<path d="M9.37324 17.25C13.9226 17.25 17.6107 13.5563 17.6107 9C17.6107 4.44365 13.9226 0.75 9.37324 0.75C4.82379 0.75 1.13574 4.44365 1.13574 9C1.13574 13.5563 4.82379 17.25 9.37324 17.25Z" stroke="#080829" stroke-width="1.2" stroke-miterlimit="10"/>
<path d="M1.13574 9H17.6107" stroke="#080829" stroke-width="1.2" stroke-linecap="round" stroke-linejoin="round"/>
<path d="M9.37321 17.0287C11.2688 17.0287 12.8055 13.4343 12.8055 9.0002C12.8055 4.56618 11.2688 0.97168 9.37321 0.97168C7.4776 0.97168 5.94092 4.56618 5.94092 9.0002C5.94092 13.4343 7.4776 17.0287 9.37321 17.0287Z" stroke="#080829" stroke-width="1.2" stroke-miterlimit="10"/>
</svg>
