<svg width="18" height="18" viewBox="0 0 18 18" fill="none" xmlns="http://www.w3.org/2000/svg">
<path d="M5.32511 8.7264C6.03717 10.1843 7.21719 11.3608 8.67614 12.0673C8.78288 12.1179 8.901 12.1399 9.01882 12.1309C9.13654 12.122 9.24997 12.0825 9.34792 12.0164L11.4962 10.5817C11.5912 10.5182 11.7004 10.4795 11.8142 10.4691C11.9279 10.4586 12.0424 10.4767 12.1474 10.5218L16.1664 12.2468C16.3029 12.3049 16.4169 12.4058 16.4912 12.5344C16.5654 12.663 16.5959 12.8123 16.5781 12.9598C16.451 13.9553 15.9661 14.8703 15.2139 15.5335C14.4619 16.1966 13.4941 16.5625 12.492 16.5626C9.39705 16.5626 6.42877 15.3312 4.24027 13.1394C2.05176 10.9475 0.822266 7.97477 0.822266 4.87505C0.822316 3.87145 1.18763 2.90228 1.8498 2.14901C2.51195 1.39574 3.42556 0.910017 4.41956 0.782797C4.56682 0.764947 4.71588 0.795507 4.84428 0.869888C4.97268 0.944257 5.07348 1.05841 5.13147 1.19514L6.85539 5.22371C6.89998 5.32791 6.91815 5.44154 6.90828 5.55448C6.89841 5.66741 6.8608 5.77615 6.79881 5.87101L5.37129 8.0555C5.30632 8.1538 5.26791 8.2673 5.25982 8.3848C5.25172 8.5024 5.27422 8.6201 5.32511 8.7264Z" stroke="black" stroke-width="1.2" stroke-linecap="round" stroke-linejoin="round"/>
</svg>
