<svg width="20" height="17" viewBox="0 0 20 17" fill="none" xmlns="http://www.w3.org/2000/svg">
<path d="M19.0477 1.92375C18.3393 2.25 17.5845 2.46625 16.7977 2.57125C17.6072 2.06375 18.225 1.26625 18.5155 0.305C17.7607 0.7775 16.9274 1.11125 16.0393 1.2975C15.3226 0.49625 14.3012 0 13.1869 0C11.025 0 9.28453 1.8425 9.28453 4.10125C9.28453 4.42625 9.31072 4.73875 9.37499 5.03625C6.12857 4.87 3.25596 3.23625 1.32619 0.7475C0.98929 1.36125 0.791671 2.06375 0.791671 2.82C0.791671 4.24 1.4881 5.49875 2.52619 6.2275C1.89881 6.215 1.28334 6.02375 0.761909 5.7225C0.761909 5.735 0.761909 5.75125 0.761909 5.7675C0.761909 7.76 2.11548 9.415 3.89048 9.7962C3.57262 9.8875 3.22619 9.9312 2.86667 9.9312C2.61667 9.9312 2.36429 9.9163 2.12738 9.8612C2.63334 11.485 4.06905 12.6788 5.77619 12.7175C4.44762 13.8088 2.76072 14.4662 0.934528 14.4662C0.614286 14.4662 0.307143 14.4513 0 14.41C1.72977 15.5813 3.77977 16.25 5.99048 16.25C13.1762 16.25 17.1048 10 17.1048 4.5825C17.1048 4.40125 17.0988 4.22625 17.0905 4.0525C17.8655 3.475 18.5167 2.75375 19.0477 1.92375Z" fill="#080829"/>
</svg>
